<svg width="40" height="40" viewBox="0 0 40 40" fill="none" xmlns="http://www.w3.org/2000/svg">
<path d="M7.91667 3.125C5.96066 3.125 4.375 4.71066 4.375 6.66667C4.375 8.62267 5.96066 10.2083 7.91667 10.2083C9.87267 10.2083 11.4583 8.62267 11.4583 6.66667C11.4583 4.71066 9.87267 3.125 7.91667 3.125Z" fill="#EAEAEA"/>
<path d="M4.58333 13.125C4.46827 13.125 4.375 13.2183 4.375 13.3333V35C4.375 35.1151 4.46827 35.2083 4.58333 35.2083H11.25C11.3651 35.2083 11.4583 35.1151 11.4583 35V13.3333C11.4583 13.2183 11.3651 13.125 11.25 13.125H4.58333Z" fill="#EAEAEA"/>
<path d="M15.4167 13.125C15.3016 13.125 15.2083 13.2183 15.2083 13.3333V35C15.2083 35.1151 15.3016 35.2083 15.4167 35.2083H22.0833C22.1984 35.2083 22.2917 35.1151 22.2917 35V23.3333C22.2917 22.5045 22.6209 21.7097 23.207 21.1236C23.793 20.5376 24.5879 20.2083 25.4167 20.2083C26.2455 20.2083 27.0403 20.5376 27.6264 21.1236C28.2124 21.7097 28.5417 22.5045 28.5417 23.3333V35C28.5417 35.1151 28.6349 35.2083 28.75 35.2083H35.4167C35.5317 35.2083 35.625 35.1151 35.625 35V20.6337C35.625 16.5892 32.1073 13.425 28.0831 13.7908C26.842 13.9037 25.6149 14.2122 24.4691 14.7032L22.2917 15.6364V13.3333C22.2917 13.2183 22.1984 13.125 22.0833 13.125H15.4167Z" fill="#EAEAEA"/>
</svg>
